<svg xmlns="http://www.w3.org/2000/svg" width="900" height="330" viewBox="0 0 900 330" font-family="'Courier New',monospace">
  <rect width="900" height="330" fill="#05070A"/>
  <rect x="8" y="8" width="884" height="314" fill="none" stroke="#12303C"/>
  <text x="40" y="42" font-size="13" fill="#00E5FF" letter-spacing="4">PLAYER INVENTORY // 9 SLOTS</text>
  <line x1="40" y1="56" x2="860" y2="56" stroke="#12303C" stroke-dasharray="5 7"/>
  <g font-size="11" text-anchor="middle">
    <g>
      <rect x="60" y="80" width="80" height="80" rx="6" fill="#0D1117" stroke="#7DD3FC"/>
      <text x="100" y="118" font-size="16" font-weight="bold" fill="#F2F5F9">C++</text>
      <text x="100" y="140" font-size="8" fill="#7DD3FC" letter-spacing="1">RARE</text>
    </g>
    <g>
      <rect x="165" y="80" width="80" height="80" rx="6" fill="#0D1117" stroke="#7DD3FC"/>
      <text x="205" y="118" font-size="14" font-weight="bold" fill="#F2F5F9">HTML</text>
      <text x="205" y="140" font-size="8" fill="#7DD3FC" letter-spacing="1">RARE</text>
    </g>
    <g>
      <rect x="270" y="80" width="80" height="80" rx="6" fill="#0D1117" stroke="#7DD3FC"/>
      <text x="310" y="118" font-size="14" font-weight="bold" fill="#F2F5F9">CSS</text>
      <text x="310" y="140" font-size="8" fill="#7DD3FC" letter-spacing="1">RARE</text>
    </g>
    <g>
      <rect x="375" y="80" width="80" height="80" rx="6" fill="#0D1117" stroke="#B388FF">
        <animate attributeName="stroke-opacity" values="1;0.4;1" dur="2.6s" repeatCount="indefinite"/>
      </rect>
      <text x="415" y="118" font-size="14" font-weight="bold" fill="#F2F5F9">3D</text>
      <text x="415" y="140" font-size="8" fill="#B388FF" letter-spacing="1">EPIC</text>
    </g>
    <g>
      <rect x="480" y="80" width="80" height="80" rx="6" fill="#0D1117" stroke="#FF9E64">
        <animate attributeName="stroke-opacity" values="1;0.4;1" dur="2.2s" repeatCount="indefinite"/>
      </rect>
      <text x="520" y="112" font-size="13" font-weight="bold" fill="#F2F5F9">GAME</text>
      <text x="520" y="126" font-size="13" font-weight="bold" fill="#F2F5F9">DEV</text>
      <text x="520" y="146" font-size="8" fill="#FF9E64" letter-spacing="1">LEGENDARY</text>
    </g>
    <g>
      <rect x="585" y="80" width="80" height="80" rx="6" fill="#0D1117" stroke="#B388FF"/>
      <text x="625" y="112" font-size="12" font-weight="bold" fill="#F2F5F9">VIDEO</text>
      <text x="625" y="126" font-size="12" font-weight="bold" fill="#F2F5F9">EDIT</text>
      <text x="625" y="146" font-size="8" fill="#B388FF" letter-spacing="1">EPIC</text>
    </g>
    <g>
      <rect x="690" y="80" width="80" height="80" rx="6" fill="#0D1117" stroke="#B388FF"/>
      <text x="730" y="118" font-size="14" font-weight="bold" fill="#F2F5F9">PS</text>
      <text x="730" y="140" font-size="8" fill="#B388FF" letter-spacing="1">EPIC</text>
    </g>
    <g>
      <rect x="165" y="185" width="80" height="80" rx="6" fill="#0D1117" stroke="#7DD3FC"/>
      <text x="205" y="223" font-size="12" font-weight="bold" fill="#F2F5F9">COLOR</text>
      <text x="205" y="237" font-size="12" font-weight="bold" fill="#F2F5F9">GRADING</text>
      <text x="205" y="255" font-size="8" fill="#7DD3FC" letter-spacing="1">RARE</text>
    </g>
    <g>
      <rect x="270" y="185" width="80" height="80" rx="6" fill="#0D1117" stroke="#8B98A9"/>
      <text x="310" y="228" font-size="8.5" font-weight="bold" fill="#F2F5F9">PRODUCTIVITY</text>
      
      <text x="310" y="255" font-size="8" fill="#8B98A9" letter-spacing="1">COMMON</text>
    </g>
  </g>
  <g font-size="10" letter-spacing="1" fill="#5B6B7F">
    <rect x="585" y="185" width="185" height="22" fill="#0D1117" stroke="#3A4454"/>
    <text x="677" y="200" text-anchor="middle">EMPTY SLOT</text>
    <rect x="585" y="215" width="185" height="22" fill="#0D1117" stroke="#3A4454" stroke-dasharray="3 4"/>
    <text x="677" y="230" text-anchor="middle">EMPTY SLOT</text>
    <text x="585" y="262" letter-spacing="1">RESERVED FOR FUTURE PICKUPS</text>
  </g>
  <text x="40" y="306" font-size="9" fill="#31404F" letter-spacing="2">RARITY TIERS ARE FICTIONAL UI FLAVOR &#183; NOT SKILL CLAIMS</text>
</svg>

